<?xml version="1.0" encoding="UTF-8"?>
<svg id="Capa_1" xmlns="http://www.w3.org/2000/svg" version="1.1" xmlns:xlink="http://www.w3.org/1999/xlink" viewBox="0 0 1451.34 1451.34">
  <!-- Generator: Adobe Illustrator 29.2.0, SVG Export Plug-In . SVG Version: 2.1.0 Build 108)  -->
  <defs>
    <style>
      .st0 {
        fill: url(#Degradado_sin_nombre_193);
      }

      .st1 {
        fill: url(#Degradado_sin_nombre_190);
      }

      .st2 {
        fill: url(#Degradado_sin_nombre_204);
      }

      .st3 {
        fill: url(#Degradado_sin_nombre_182);
      }

      .st4 {
        fill: url(#Degradado_sin_nombre_178);
      }

      .st5 {
        fill: url(#Degradado_sin_nombre_91);
      }
    </style>
    <linearGradient id="Degradado_sin_nombre_182" data-name="Degradado sin nombre 182" x1="585.39" y1="332.23" x2="1323.98" y2="-163.42" gradientTransform="translate(-348.69 675.23) rotate(-29.17)" gradientUnits="userSpaceOnUse">
      <stop offset="0" stop-color="#2282b2"/>
      <stop offset=".12" stop-color="#3593b5"/>
      <stop offset=".3" stop-color="#4ca8b9"/>
      <stop offset=".49" stop-color="#5cb6bb"/>
      <stop offset=".71" stop-color="#65bfbd"/>
      <stop offset="1" stop-color="#69c2be"/>
    </linearGradient>
    <linearGradient id="Degradado_sin_nombre_204" data-name="Degradado sin nombre 204" x1="925.96" y1="929.64" x2="1224.42" y2="404.94" gradientTransform="translate(-85.9 104.87) rotate(-5.15)" gradientUnits="userSpaceOnUse">
      <stop offset="0" stop-color="#357886"/>
      <stop offset=".05" stop-color="#408792"/>
      <stop offset=".13" stop-color="#519da3"/>
      <stop offset=".23" stop-color="#5daeb0"/>
      <stop offset=".35" stop-color="#66baba"/>
      <stop offset=".52" stop-color="#6bc1bf"/>
      <stop offset="1" stop-color="#6dc3c1"/>
    </linearGradient>
    <linearGradient id="Degradado_sin_nombre_91" data-name="Degradado sin nombre 91" x1="537.44" y1="1297.35" x2="1303.56" y2="855.03" gradientTransform="translate(-85.9 104.87) rotate(-5.15)" gradientUnits="userSpaceOnUse">
      <stop offset=".04" stop-color="#2d508a"/>
      <stop offset=".13" stop-color="#336796"/>
      <stop offset=".28" stop-color="#3c85a5"/>
      <stop offset=".44" stop-color="#439db2"/>
      <stop offset=".6" stop-color="#48aebb"/>
      <stop offset=".78" stop-color="#4bb8c0"/>
      <stop offset="1" stop-color="#4cbcc2"/>
    </linearGradient>
    <linearGradient id="Degradado_sin_nombre_178" data-name="Degradado sin nombre 178" x1="846.46" y1="204.56" x2="520.65" y2="511.82" gradientTransform="translate(-348.69 675.23) rotate(-29.17)" gradientUnits="userSpaceOnUse">
      <stop offset="0" stop-color="#11767b"/>
      <stop offset=".27" stop-color="#167281"/>
      <stop offset=".66" stop-color="#276a94"/>
      <stop offset="1" stop-color="#3a61ab"/>
    </linearGradient>
    <linearGradient id="Degradado_sin_nombre_190" data-name="Degradado sin nombre 190" x1="973.8" y1="681.52" x2="810.66" y2="233.31" gradientTransform="translate(-85.9 104.87) rotate(-5.15)" gradientUnits="userSpaceOnUse">
      <stop offset="0" stop-color="#020304"/>
      <stop offset=".43" stop-color="#024138" stop-opacity=".9"/>
      <stop offset="1" stop-color="#039c84" stop-opacity=".75"/>
    </linearGradient>
    <linearGradient id="Degradado_sin_nombre_193" data-name="Degradado sin nombre 193" x1="754.83" y1="1207" x2="484.11" y2="814.37" gradientTransform="translate(-85.9 104.87) rotate(-5.15)" gradientUnits="userSpaceOnUse">
      <stop offset=".04" stop-color="#315798"/>
      <stop offset=".18" stop-color="#2c4f8a"/>
      <stop offset=".44" stop-color="#203a65"/>
      <stop offset=".79" stop-color="#0e182a"/>
      <stop offset="1" stop-color="#020304"/>
    </linearGradient>
  </defs>
  <path class="st3" d="M893.78,114.35c-83.2-16.1-202.49,144.87-294.73,384.5-252.38-47.3-452.01-30.28-481.98,48.98,27.04-90.65,87.98-171.23,177.1-220.97l318.56-177.79c89.12-49.74,189.7-59.31,281.05-34.73Z"/>
  <path class="st2" d="M1124.47,294.21l177.79,318.56c49.74,89.12,59.31,189.7,34.73,281.05-.91,3.21-1.79,6.48-2.79,9.66-29.98,79.26-229.61,96.28-481.98,48.98,21.01-54.47,40.56-112.98,57.99-174.43,17.43-61.45,31.5-121.51,42.28-178.94,47.3-252.38,30.28-452.01-48.98-481.98,90.65,27.04,171.23,87.98,220.97,177.1Z"/>
  <path class="st5" d="M1334.19,903.48c-27.04,90.65-87.95,171.29-177.07,221.03l-318.56,177.79c-89.12,49.74-189.73,59.25-281.08,34.67,83.2,16.1,202.49-144.87,294.73-384.5,252.38,47.3,452.01,30.28,481.98-48.98Z"/>
  <path class="st4" d="M599.05,498.86c-20.97,54.53-40.52,113.04-57.95,174.49-17.43,61.45-31.5,121.51-42.22,178.9-47.3,252.38-30.28,452.01,48.98,481.98-90.65-27.04-171.29-87.95-221.03-177.07l-177.79-318.56c-49.74-89.12-59.25-189.73-34.67-281.08.82-3.24,1.79-6.48,2.7-9.69,29.98-79.26,229.61-96.28,481.98-48.98Z"/>
  <path class="st1" d="M952.48,599.09c-54.53-20.97-113.04-40.52-174.49-57.95-61.45-17.43-121.51-31.5-178.94-42.28,92.24-239.63,211.53-400.6,294.73-384.5,3.27.88,6.48,1.79,9.72,2.76,79.26,29.98,96.28,229.61,48.98,481.98Z"/>
  <path class="st0" d="M852.21,952.46c-92.24,239.63-211.53,400.6-294.73,384.5-3.18-.85-6.48-1.79-9.63-2.73-79.26-29.98-96.28-229.61-48.98-481.98,54.47,21.01,112.98,40.56,174.43,57.99,61.45,17.43,121.51,31.5,178.9,42.22Z"/>
</svg>