<?xml version="1.0" encoding="UTF-8"?>
<svg id="Capa_1" xmlns="http://www.w3.org/2000/svg" version="1.1" xmlns:xlink="http://www.w3.org/1999/xlink" viewBox="0 0 612 792">
  <!-- Generator: Adobe Illustrator 29.2.0, SVG Export Plug-In . SVG Version: 2.1.0 Build 108)  -->
  <defs>
    <style>
      .st0 {
        fill: url(#Degradado_sin_nombre_6);
      }

      .st1 {
        fill: url(#Degradado_sin_nombre_5);
      }

      .st2 {
        fill: url(#Degradado_sin_nombre_16);
      }

      .st3 {
        fill: url(#Degradado_sin_nombre_11);
      }

      .st4 {
        fill: url(#Degradado_sin_nombre_4);
      }

      .st5, .st6, .st7 {
        isolation: isolate;
      }

      .st5, .st7 {
        font-family: Haettenschweiler, Haettenschweiler;
        font-size: 164.8px;
      }

      .st8 {
        fill: url(#Degradado_sin_nombre_2);
      }

      .st7 {
        fill: none;
        stroke: #1d1d1b;
        stroke-miterlimit: 10;
        stroke-width: .1px;
      }

      .st9 {
        fill: url(#Degradado_sin_nombre_9);
      }

      .st10 {
        fill: url(#Degradado_sin_nombre_13);
      }

      .st11 {
        fill: url(#Degradado_sin_nombre_7);
      }

      .st12 {
        fill: url(#Degradado_sin_nombre_3);
      }

      .st13 {
        fill: url(#Degradado_sin_nombre);
      }

      .st14 {
        fill: url(#Degradado_sin_nombre_10);
      }

      .st15 {
        fill: url(#Degradado_sin_nombre_14);
      }

      .st16 {
        fill: url(#Degradado_sin_nombre_15);
      }

      .st17 {
        fill: url(#Degradado_sin_nombre_8);
      }

      .st18 {
        fill: url(#Degradado_sin_nombre_12);
      }
    </style>
    <linearGradient id="Degradado_sin_nombre" data-name="Degradado sin nombre" x1="231.5" y1="667.6" x2="444.1" y2="810.1" gradientTransform="translate(314.2 938.6) rotate(-29.2) scale(1 -1)" gradientUnits="userSpaceOnUse">
      <stop offset="0" stop-color="#2282b2"/>
      <stop offset="0" stop-color="#3593b5"/>
      <stop offset=".3" stop-color="#4ca8b9"/>
      <stop offset=".5" stop-color="#5cb6bb"/>
      <stop offset=".7" stop-color="#65bfbd"/>
      <stop offset="1" stop-color="#69c2be"/>
    </linearGradient>
    <linearGradient id="Degradado_sin_nombre_2" data-name="Degradado sin nombre 2" x1="357.7" y1="479" x2="443.6" y2="630.1" gradientTransform="translate(49.4 829.2) rotate(-5.2) scale(1 -1)" gradientUnits="userSpaceOnUse">
      <stop offset="0" stop-color="#357886"/>
      <stop offset="0" stop-color="#408792"/>
      <stop offset="0" stop-color="#519da3"/>
      <stop offset=".2" stop-color="#5daeb0"/>
      <stop offset=".3" stop-color="#66baba"/>
      <stop offset=".5" stop-color="#6bc1bf"/>
      <stop offset="1" stop-color="#6dc3c1"/>
    </linearGradient>
    <linearGradient id="Degradado_sin_nombre_3" data-name="Degradado sin nombre 3" x1="245.5" y1="373.2" x2="466.2" y2="500.6" gradientTransform="translate(49.4 829.2) rotate(-5.2) scale(1 -1)" gradientUnits="userSpaceOnUse">
      <stop offset="0" stop-color="#2d508a"/>
      <stop offset="0" stop-color="#336796"/>
      <stop offset=".3" stop-color="#3c85a5"/>
      <stop offset=".4" stop-color="#439db2"/>
      <stop offset=".6" stop-color="#48aebb"/>
      <stop offset=".8" stop-color="#4bb8c0"/>
      <stop offset="1" stop-color="#4cbcc2"/>
    </linearGradient>
    <linearGradient id="Degradado_sin_nombre_4" data-name="Degradado sin nombre 4" x1="306.5" y1="704.6" x2="212.9" y2="616.2" gradientTransform="translate(314.2 938.6) rotate(-29.2) scale(1 -1)" gradientUnits="userSpaceOnUse">
      <stop offset="0" stop-color="#11767b"/>
      <stop offset=".3" stop-color="#167281"/>
      <stop offset=".7" stop-color="#276a94"/>
      <stop offset="1" stop-color="#3a61ab"/>
    </linearGradient>
    <linearGradient id="Degradado_sin_nombre_5" data-name="Degradado sin nombre 5" x1="371.2" y1="551" x2="324.3" y2="680" gradientTransform="translate(49.4 829.2) rotate(-5.2) scale(1 -1)" gradientUnits="userSpaceOnUse">
      <stop offset="0" stop-color="#020304"/>
      <stop offset=".4" stop-color="#024138" stop-opacity=".9"/>
      <stop offset="1" stop-color="#039c84" stop-opacity=".8"/>
    </linearGradient>
    <linearGradient id="Degradado_sin_nombre_6" data-name="Degradado sin nombre 6" x1="307.8" y1="399.6" x2="229.8" y2="512.6" gradientTransform="translate(49.4 829.2) rotate(-5.2) scale(1 -1)" gradientUnits="userSpaceOnUse">
      <stop offset="0" stop-color="#315798"/>
      <stop offset=".2" stop-color="#2c4f8a"/>
      <stop offset=".4" stop-color="#203a65"/>
      <stop offset=".8" stop-color="#0e182a"/>
      <stop offset="1" stop-color="#020304"/>
    </linearGradient>
    <linearGradient id="Degradado_sin_nombre_7" data-name="Degradado sin nombre 7" x1="107.2" y1="214.2" x2="123" y2="370.8" gradientTransform="translate(0 792) scale(1 -1)" gradientUnits="userSpaceOnUse">
      <stop offset="0" stop-color="#2b4269"/>
      <stop offset="0" stop-color="#345174"/>
      <stop offset="0" stop-color="#4b7690"/>
      <stop offset=".2" stop-color="#5e94a6"/>
      <stop offset=".3" stop-color="#6dacb8"/>
      <stop offset=".4" stop-color="#77bcc5"/>
      <stop offset=".5" stop-color="#7ec6cc"/>
      <stop offset=".6" stop-color="#80cacf"/>
      <stop offset=".7" stop-color="#9ad4da"/>
      <stop offset="1" stop-color="#e6f4fa"/>
    </linearGradient>
    <linearGradient id="Degradado_sin_nombre_8" data-name="Degradado sin nombre 8" x1="155.1" y1="209.3" x2="170.8" y2="366" gradientTransform="translate(0 792) scale(1 -1)" gradientUnits="userSpaceOnUse">
      <stop offset="0" stop-color="#2b4269"/>
      <stop offset="0" stop-color="#345174"/>
      <stop offset="0" stop-color="#4b7690"/>
      <stop offset=".2" stop-color="#5e94a6"/>
      <stop offset=".3" stop-color="#6dacb8"/>
      <stop offset=".4" stop-color="#77bcc5"/>
      <stop offset=".5" stop-color="#7ec6cc"/>
      <stop offset=".6" stop-color="#80cacf"/>
      <stop offset=".7" stop-color="#9ad4da"/>
      <stop offset="1" stop-color="#e6f4fa"/>
    </linearGradient>
    <linearGradient id="Degradado_sin_nombre_9" data-name="Degradado sin nombre 9" x1="194.9" y1="205.4" x2="210.7" y2="362" gradientTransform="translate(0 792) scale(1 -1)" gradientUnits="userSpaceOnUse">
      <stop offset="0" stop-color="#2b4269"/>
      <stop offset="0" stop-color="#345174"/>
      <stop offset="0" stop-color="#4b7690"/>
      <stop offset=".2" stop-color="#5e94a6"/>
      <stop offset=".3" stop-color="#6dacb8"/>
      <stop offset=".4" stop-color="#77bcc5"/>
      <stop offset=".5" stop-color="#7ec6cc"/>
      <stop offset=".6" stop-color="#80cacf"/>
      <stop offset=".7" stop-color="#9ad4da"/>
      <stop offset="1" stop-color="#e6f4fa"/>
    </linearGradient>
    <linearGradient id="Degradado_sin_nombre_10" data-name="Degradado sin nombre 10" x1="251" y1="199.7" x2="266.8" y2="356.4" gradientTransform="translate(0 792) scale(1 -1)" gradientUnits="userSpaceOnUse">
      <stop offset="0" stop-color="#2b4269"/>
      <stop offset="0" stop-color="#345174"/>
      <stop offset="0" stop-color="#4b7690"/>
      <stop offset=".2" stop-color="#5e94a6"/>
      <stop offset=".3" stop-color="#6dacb8"/>
      <stop offset=".4" stop-color="#77bcc5"/>
      <stop offset=".5" stop-color="#7ec6cc"/>
      <stop offset=".6" stop-color="#80cacf"/>
      <stop offset=".7" stop-color="#9ad4da"/>
      <stop offset="1" stop-color="#e6f4fa"/>
    </linearGradient>
    <linearGradient id="Degradado_sin_nombre_11" data-name="Degradado sin nombre 11" x1="289.4" y1="195.8" x2="305.2" y2="352.5" gradientTransform="translate(0 792) scale(1 -1)" gradientUnits="userSpaceOnUse">
      <stop offset="0" stop-color="#2b4269"/>
      <stop offset="0" stop-color="#345174"/>
      <stop offset="0" stop-color="#4b7690"/>
      <stop offset=".2" stop-color="#5e94a6"/>
      <stop offset=".3" stop-color="#6dacb8"/>
      <stop offset=".4" stop-color="#77bcc5"/>
      <stop offset=".5" stop-color="#7ec6cc"/>
      <stop offset=".6" stop-color="#80cacf"/>
      <stop offset=".7" stop-color="#9ad4da"/>
      <stop offset="1" stop-color="#e6f4fa"/>
    </linearGradient>
    <linearGradient id="Degradado_sin_nombre_12" data-name="Degradado sin nombre 12" x1="324.3" y1="192.3" x2="340.1" y2="349" gradientTransform="translate(0 792) scale(1 -1)" gradientUnits="userSpaceOnUse">
      <stop offset="0" stop-color="#2b4269"/>
      <stop offset="0" stop-color="#345174"/>
      <stop offset="0" stop-color="#4b7690"/>
      <stop offset=".2" stop-color="#5e94a6"/>
      <stop offset=".3" stop-color="#6dacb8"/>
      <stop offset=".4" stop-color="#77bcc5"/>
      <stop offset=".5" stop-color="#7ec6cc"/>
      <stop offset=".6" stop-color="#80cacf"/>
      <stop offset=".7" stop-color="#9ad4da"/>
      <stop offset="1" stop-color="#e6f4fa"/>
    </linearGradient>
    <linearGradient id="Degradado_sin_nombre_13" data-name="Degradado sin nombre 13" x1="367.4" y1="188" x2="383.2" y2="344.5" gradientTransform="translate(0 792) scale(1 -1)" gradientUnits="userSpaceOnUse">
      <stop offset="0" stop-color="#2b4269"/>
      <stop offset="0" stop-color="#345174"/>
      <stop offset="0" stop-color="#4b7690"/>
      <stop offset=".2" stop-color="#5e94a6"/>
      <stop offset=".3" stop-color="#6dacb8"/>
      <stop offset=".4" stop-color="#77bcc5"/>
      <stop offset=".5" stop-color="#7ec6cc"/>
      <stop offset=".6" stop-color="#80cacf"/>
      <stop offset=".7" stop-color="#9ad4da"/>
      <stop offset="1" stop-color="#e6f4fa"/>
    </linearGradient>
    <linearGradient id="Degradado_sin_nombre_14" data-name="Degradado sin nombre 14" x1="424.9" y1="182.2" x2="440.6" y2="338.8" gradientTransform="translate(0 792) scale(1 -1)" gradientUnits="userSpaceOnUse">
      <stop offset="0" stop-color="#2b4269"/>
      <stop offset="0" stop-color="#345174"/>
      <stop offset="0" stop-color="#4b7690"/>
      <stop offset=".2" stop-color="#5e94a6"/>
      <stop offset=".3" stop-color="#6dacb8"/>
      <stop offset=".4" stop-color="#77bcc5"/>
      <stop offset=".5" stop-color="#7ec6cc"/>
      <stop offset=".6" stop-color="#80cacf"/>
      <stop offset=".7" stop-color="#9ad4da"/>
      <stop offset="1" stop-color="#e6f4fa"/>
    </linearGradient>
    <linearGradient id="Degradado_sin_nombre_15" data-name="Degradado sin nombre 15" x1="463.8" y1="178.2" x2="479.6" y2="334.8" gradientTransform="translate(0 792) scale(1 -1)" gradientUnits="userSpaceOnUse">
      <stop offset="0" stop-color="#2b4269"/>
      <stop offset="0" stop-color="#345174"/>
      <stop offset="0" stop-color="#4b7690"/>
      <stop offset=".2" stop-color="#5e94a6"/>
      <stop offset=".3" stop-color="#6dacb8"/>
      <stop offset=".4" stop-color="#77bcc5"/>
      <stop offset=".5" stop-color="#7ec6cc"/>
      <stop offset=".6" stop-color="#80cacf"/>
      <stop offset=".7" stop-color="#9ad4da"/>
      <stop offset="1" stop-color="#e6f4fa"/>
    </linearGradient>
    <linearGradient id="Degradado_sin_nombre_16" data-name="Degradado sin nombre 16" x1="494.6" y1="175.1" x2="510.4" y2="331.8" gradientTransform="translate(0 792) scale(1 -1)" gradientUnits="userSpaceOnUse">
      <stop offset="0" stop-color="#2b4269"/>
      <stop offset="0" stop-color="#345174"/>
      <stop offset="0" stop-color="#4b7690"/>
      <stop offset=".2" stop-color="#5e94a6"/>
      <stop offset=".3" stop-color="#6dacb8"/>
      <stop offset=".4" stop-color="#77bcc5"/>
      <stop offset=".5" stop-color="#7ec6cc"/>
      <stop offset=".6" stop-color="#80cacf"/>
      <stop offset=".7" stop-color="#9ad4da"/>
      <stop offset="1" stop-color="#e6f4fa"/>
    </linearGradient>
  </defs>
  <g>
    <path class="st13" d="M354.5,79.8c-24-4.7-58.4,41.7-84.9,110.6-72.7-13.7-130.1-8.6-138.7,14.1,7.8-26,25.3-49.3,51-63.6l91.8-51.2c25.7-14.3,54.6-17.1,81-10h-.2Z"/>
    <path class="st8" d="M420.9,131.6l51.2,91.8c14.3,25.7,17.1,54.6,10,81-.3.9-.5,1.9-.8,2.8-8.6,22.8-66.1,27.8-138.7,14.1,6.1-15.7,11.8-32.5,16.8-50.2,5-17.7,9.1-35,12.1-51.5,13.7-72.7,8.6-130.1-14.1-138.7,26,7.8,49.3,25.3,63.6,51h0v-.3Z"/>
    <path class="st12" d="M481.3,306.9c-7.8,26-25.3,49.3-51,63.7l-91.8,51.2c-25.7,14.3-54.6,17.1-81,10,24,4.7,58.4-41.7,84.9-110.6,72.7,13.7,130.1,8.6,138.7-14.1h0l.2-.2Z"/>
    <path class="st4" d="M269.6,190.6c-6.1,15.7-11.8,32.5-16.8,50.2-5,17.7-9.1,35-12.1,51.5-13.7,72.7-8.6,130.1,14.1,138.7-26-7.8-49.3-25.3-63.7-51l-51.2-91.8c-14.3-25.7-17.1-54.6-10-81,.3-.9.5-1.9.8-2.8,8.6-22.8,66.1-27.8,138.7-14.1h0l.2.3Z"/>
    <path class="st1" d="M371.3,219.3c-15.7-6.1-32.5-11.8-50.2-16.8s-35-9.1-51.5-12.1c26.5-69,60.9-115.3,84.9-110.6.9.3,1.9.5,2.8.8,22.8,8.6,27.8,66.1,14.1,138.7h-.2Z"/>
    <path class="st0" d="M342.4,321.1c-26.5,69-60.9,115.3-84.9,110.6-.9-.3-1.9-.5-2.8-.8-22.8-8.6-27.8-66.1-14.1-138.7,15.7,6.1,32.5,11.8,50.2,16.8,17.7,5,35,9.1,51.5,12.1h.2Z"/>
  </g>
  <g>
    <g class="st6">
      <g class="st6">
        <g class="st6">
          <text class="st5" transform="translate(83.7 600.5) scale(.8 1)"><tspan x="0" y="0">RETRIEVBIT</tspan></text>
        </g>
      </g>
    </g>
    <g>
      <path class="st11" d="M135.1,600.7h-19.9c-2.1-3.2-3.2-12.6-3.2-27.9v-7.1c.3-9.6.3-14.6.3-14.8,0-3.9-2.1-5.9-6.2-5.9v55.4h-19.9v-115.4h24.5c5.6,0,10.6,1.7,14.7,5,4.1,3.2,6.2,8.5,6.2,15.5v13.8c0,9-4.1,15.1-12.3,18.2,8.2,2.4,12.4,8.8,12.4,19.1l-.3,12.7c0,18.4,1.2,28.9,3.7,31.4h0ZM112.3,525v-19.1c0-4-2-6-6.1-6v31.2c4.1,0,6.1-2,6.1-6.1h0Z"/>
      <path class="st17" d="M178.6,600.5h-39v-115.4h38.7v14.8h-18.8v31.2h16.9v14.1h-16.9v40.6h19.1v14.8h0Z"/>
      <path class="st9" d="M225.5,500.1h-11.2v100.3h-19.9v-100.3h-11.2v-15.1h42.2v15.1h0Z"/>
      <path class="st14" d="M280.4,600.7h-19.9c-2.1-3.2-3.2-12.6-3.2-27.9v-7.1c.3-9.6.3-14.6.3-14.8,0-3.9-2.1-5.9-6.2-5.9v55.4h-19.9v-115.4h24.5c5.6,0,10.6,1.7,14.7,5,4.1,3.2,6.2,8.5,6.2,15.5v13.8c0,9-4.1,15.1-12.3,18.2,8.2,2.4,12.4,8.8,12.4,19.1l-.3,12.7c0,18.4,1.2,28.9,3.7,31.4h0,0ZM257.5,525v-19.1c0-4-2-6-6.1-6v31.2c4.1,0,6.1-2,6.1-6.1h0Z"/>
      <path class="st3" d="M304.8,600.5h-19.9v-115.4h19.9v115.4Z"/>
      <path class="st18" d="M349.6,600.5h-39v-115.4h38.7v14.8h-18.8v31.2h16.9v14.1h-16.9v40.6h19.1v14.8h0Z"/>
      <path class="st10" d="M405.6,485.1l-12.2,115.4h-28.1l-12.2-115.4h19.4l7,80.7,6.8-80.7h19.5,0,0Z"/>
      <path class="st15" d="M410.2,600.5v-115.4h23.5c5.6,0,10.5,1.6,14.7,4.9,4.1,3.2,6.2,8.5,6.2,15.6v16.1c0,8.1-3.9,13.8-11.6,17.2,8.2,2.5,12.2,8.1,12.2,16.7v22.4c0,7.6-1.9,13.3-5.8,17.1-3.9,3.8-8.6,5.7-13.9,5.7h-25.3v-.2ZM435.6,525.6v-19.7c0-4-1.9-6-5.6-6v31.9c3.7,0,5.6-2,5.6-6.1ZM435.6,579.7v-29.2c0-4-1.9-6-5.6-6v41.3c3.7,0,5.6-2,5.6-6.1h0Z"/>
      <path class="st16" d="M480.9,600.5h-19.9v-115.4h19.9v115.4Z"/>
      <path class="st2" d="M528.3,500.1h-11.2v100.3h-19.9v-100.3h-11.2v-15.1h42.2v15.1h0Z"/>
    </g>
    <g class="st6">
      <g class="st6">
        <g class="st6">
          <text class="st7" transform="translate(83.7 600.5) scale(.8 1)"><tspan x="0" y="0">RETRIEVBIT</tspan></text>
        </g>
      </g>
    </g>
  </g>
</svg>